<svg width="666" height="651" viewBox="0 0 666 651" fill="none" xmlns="http://www.w3.org/2000/svg">
<circle cx="582.184" cy="582.185" r="68.7143" fill="#549987"/>
<circle cx="444.755" cy="582.185" r="68.7143" fill="#549987"/>
<circle cx="444.755" cy="444.757" r="68.7143" fill="#549987"/>
<circle cx="582.184" cy="444.757" r="68.7143" fill="#549987"/>
<circle cx="280.143" cy="206.144" r="68.7143" fill="#549987"/>
<circle cx="142.714" cy="206.144" r="68.7143" fill="#549987"/>
<circle cx="142.714" cy="68.7143" r="68.7143" fill="#549987"/>
<circle cx="280.143" cy="68.7143" r="68.7143" fill="#549987"/>
<circle cx="25.6735" cy="72.4918" r="25.6735" fill="#E1A6B8"/>
<circle cx="77.0211" cy="72.4918" r="25.6735" fill="#E1A6B8"/>
<circle cx="128.367" cy="72.4918" r="25.6735" fill="#E1A6B8"/>
<circle cx="179.715" cy="72.4918" r="25.6735" fill="#E1A6B8"/>
<circle cx="231.061" cy="72.4918" r="25.6735" fill="#E1A6B8"/>
<circle cx="282.409" cy="72.4918" r="25.6735" fill="#E1A6B8"/>
<circle cx="333.755" cy="72.4918" r="25.6735" fill="#E1A6B8"/>
<circle cx="385.102" cy="72.4918" r="25.6735" fill="#E1A6B8"/>
<circle cx="436.448" cy="72.4918" r="25.6735" fill="#E1A6B8"/>
<circle cx="487.797" cy="72.4918" r="25.6735" fill="#E1A6B8"/>
<circle cx="282.409" cy="123.838" r="25.6735" fill="#E1A6B8"/>
<circle cx="333.755" cy="123.838" r="25.6735" fill="#E1A6B8"/>
<circle cx="385.102" cy="123.838" r="25.6735" fill="#E1A6B8"/>
<circle cx="436.448" cy="123.838" r="25.6735" fill="#E1A6B8"/>
<circle cx="487.797" cy="123.838" r="25.6735" fill="#E1A6B8"/>
<circle cx="282.408" cy="175.183" r="25.6735" transform="rotate(90 282.408 175.183)" fill="#E1A6B8"/>
<circle cx="282.408" cy="226.531" r="25.6735" transform="rotate(90 282.408 226.531)" fill="#E1A6B8"/>
<circle cx="282.408" cy="277.879" r="25.6735" transform="rotate(90 282.408 277.879)" fill="#E1A6B8"/>
<circle cx="486.286" cy="394.164" r="25.6735" fill="#E1A6B8"/>
<circle cx="537.631" cy="394.164" r="25.6735" fill="#E1A6B8"/>
<circle cx="588.98" cy="394.164" r="25.6735" fill="#E1A6B8"/>
<circle cx="640.326" cy="394.164" r="25.6735" fill="#E1A6B8"/>
<circle cx="588.979" cy="291.47" r="25.6735" transform="rotate(90 588.979 291.47)" fill="#E1A6B8"/>
<circle cx="486.286" cy="342.818" r="25.6735" fill="#E1A6B8"/>
<circle cx="537.631" cy="342.818" r="25.6735" fill="#E1A6B8"/>
<circle cx="588.98" cy="342.818" r="25.6735" fill="#E1A6B8"/>
<circle cx="640.326" cy="342.818" r="25.6735" fill="#E1A6B8"/>
<circle cx="640.327" cy="291.47" r="25.6735" transform="rotate(90 640.327 291.47)" fill="#E1A6B8"/>
<circle cx="486.286" cy="445.511" r="25.6735" fill="#E1A6B8"/>
<circle cx="537.631" cy="445.511" r="25.6735" fill="#E1A6B8"/>
<circle cx="588.98" cy="445.511" r="25.6735" fill="#E1A6B8"/>
<circle cx="640.326" cy="445.511" r="25.6735" fill="#E1A6B8"/>
<circle cx="537.633" cy="291.47" r="25.6735" transform="rotate(90 537.633 291.47)" fill="#E1A6B8"/>
<circle cx="537.631" cy="548.207" r="25.6735" fill="#E1A6B8"/>
<circle cx="537.631" cy="496.857" r="25.6735" fill="#E1A6B8"/>
</svg>
