<svg width="104" height="104" viewBox="0 0 104 104" fill="none" xmlns="http://www.w3.org/2000/svg">
<circle cx="52" cy="52" r="52" fill="#E1A6B8"/>
<path d="M16.8203 58V44H19.0603V49.56H25.8403V44H28.0803V58H25.8403V51.62H19.0603V58H16.8203Z" fill="black"/>
<path d="M34.1827 58.3C33.496 58.3 32.8927 58.1733 32.3727 57.92C31.8527 57.66 31.446 57.2967 31.1527 56.83C30.866 56.3567 30.7227 55.8 30.7227 55.16C30.7227 54.62 30.8593 54.1333 31.1327 53.7C31.406 53.26 31.8293 52.8967 32.4027 52.61C32.9827 52.3233 33.726 52.1333 34.6327 52.04C35.5393 51.94 36.6293 51.9533 37.9027 52.08L37.9427 53.6C37.036 53.4733 36.256 53.42 35.6027 53.44C34.9493 53.46 34.4127 53.5433 33.9927 53.69C33.5793 53.83 33.2727 54.02 33.0727 54.26C32.8793 54.4933 32.7827 54.7633 32.7827 55.07C32.7827 55.55 32.9527 55.92 33.2927 56.18C33.6393 56.44 34.1127 56.57 34.7127 56.57C35.226 56.57 35.686 56.4767 36.0927 56.29C36.4993 56.1033 36.8193 55.84 37.0527 55.5C37.2927 55.16 37.4127 54.76 37.4127 54.3V51.67C37.4127 51.23 37.3193 50.85 37.1327 50.53C36.946 50.2033 36.6627 49.95 36.2827 49.77C35.9027 49.59 35.4293 49.5 34.8627 49.5C34.3427 49.5 33.8293 49.58 33.3227 49.74C32.816 49.8933 32.3327 50.1367 31.8727 50.47L31.2527 48.85C31.8727 48.43 32.5193 48.1333 33.1927 47.96C33.866 47.7867 34.5127 47.7 35.1327 47.7C36.0527 47.7 36.8393 47.8467 37.4927 48.14C38.1527 48.4267 38.6593 48.8633 39.0127 49.45C39.366 50.03 39.5427 50.7633 39.5427 51.65V58H37.5627V56.83C37.2293 57.3033 36.766 57.6667 36.1727 57.92C35.5793 58.1733 34.916 58.3 34.1827 58.3Z" fill="black"/>
<path d="M42.4678 58V48.1H47.1878C48.3078 48.1 49.2045 48.3133 49.8778 48.74C50.5511 49.1667 50.8878 49.8067 50.8878 50.66C50.8878 51.06 50.7911 51.4167 50.5978 51.73C50.4045 52.0367 50.1378 52.2933 49.7978 52.5C49.4578 52.7067 49.0611 52.8567 48.6078 52.95L48.5678 52.46C49.4411 52.58 50.1178 52.87 50.5978 53.33C51.0778 53.79 51.3178 54.3733 51.3178 55.08C51.3178 55.68 51.1611 56.2 50.8478 56.64C50.5345 57.0733 50.0845 57.41 49.4978 57.65C48.9111 57.8833 48.2078 58 47.3878 58H42.4678ZM44.5978 56.37H47.0878C47.7478 56.37 48.2545 56.26 48.6078 56.04C48.9678 55.82 49.1478 55.49 49.1478 55.05C49.1478 54.6167 48.9711 54.2933 48.6178 54.08C48.2645 53.86 47.7545 53.75 47.0878 53.75H44.3078V52.18H46.8578C47.4778 52.18 47.9578 52.0867 48.2978 51.9C48.6378 51.7067 48.8078 51.3933 48.8078 50.96C48.8078 50.5267 48.6378 50.2133 48.2978 50.02C47.9578 49.82 47.4778 49.72 46.8578 49.72H44.5978V56.37Z" fill="black"/>
<path d="M58.3159 58.3C57.2493 58.3 56.3126 58.0833 55.5059 57.65C54.6993 57.21 54.0693 56.5967 53.6159 55.81C53.1693 55.0233 52.9459 54.11 52.9459 53.07C52.9459 52.31 53.0759 51.61 53.3359 50.97C53.5959 50.3233 53.9626 49.7633 54.4359 49.29C54.9093 48.8167 55.4626 48.45 56.0959 48.19C56.7359 47.93 57.4326 47.8 58.1859 47.8C59.0059 47.8 59.7359 47.9467 60.3759 48.24C61.0159 48.5267 61.5459 48.93 61.9659 49.45C62.3926 49.97 62.6926 50.58 62.8659 51.28C63.0459 51.9733 63.0759 52.7267 62.9559 53.54H55.0559C55.0426 54.1333 55.1726 54.6533 55.4459 55.1C55.7193 55.54 56.1093 55.8833 56.6159 56.13C57.1293 56.3767 57.7326 56.5 58.4259 56.5C58.9859 56.5 59.5259 56.4167 60.0459 56.25C60.5726 56.0767 61.0493 55.8233 61.4759 55.49L62.3259 57.07C62.0059 57.33 61.6193 57.5533 61.1659 57.74C60.7126 57.92 60.2393 58.0567 59.7459 58.15C59.2526 58.25 58.7759 58.3 58.3159 58.3ZM55.1859 51.92H60.7959C60.7759 51.1733 60.5359 50.5867 60.0759 50.16C59.6226 49.7333 58.9759 49.52 58.1359 49.52C57.3226 49.52 56.6459 49.7333 56.1059 50.16C55.5726 50.5867 55.2659 51.1733 55.1859 51.92Z" fill="black"/>
<path d="M65.2412 62.2V48.1H67.2212V49.49C67.6146 48.99 68.1179 48.5833 68.7313 48.27C69.3446 47.9567 70.1013 47.8 71.0013 47.8C71.9679 47.8 72.8246 48.03 73.5713 48.49C74.3246 48.9433 74.9112 49.5667 75.3312 50.36C75.7512 51.1467 75.9613 52.0433 75.9613 53.05C75.9613 53.7767 75.8412 54.46 75.6012 55.1C75.3612 55.7333 75.0179 56.29 74.5713 56.77C74.1313 57.25 73.6046 57.6267 72.9912 57.9C72.3846 58.1667 71.7112 58.3 70.9712 58.3C70.1979 58.3 69.5179 58.16 68.9313 57.88C68.3446 57.6 67.8446 57.2233 67.4313 56.75V62.2H65.2412ZM70.6012 56.35C71.2146 56.35 71.7579 56.2167 72.2313 55.95C72.7113 55.6767 73.0846 55.2933 73.3512 54.8C73.6246 54.3067 73.7612 53.7233 73.7612 53.05C73.7612 52.3767 73.6246 51.7933 73.3512 51.3C73.0779 50.8 72.7012 50.4167 72.2212 50.15C71.7479 49.8833 71.2079 49.75 70.6012 49.75C69.9879 49.75 69.4413 49.8833 68.9613 50.15C68.4879 50.4167 68.1146 50.8 67.8413 51.3C67.5679 51.7933 67.4313 52.3767 67.4313 53.05C67.4313 53.7233 67.5679 54.3067 67.8413 54.8C68.1146 55.2933 68.4879 55.6767 68.9613 55.95C69.4413 56.2167 69.9879 56.35 70.6012 56.35Z" fill="black"/>
<path d="M76.8042 58.01L80.3842 53.03L77.0142 48.1H79.7842L81.8942 51.45L83.9342 48.1H86.6342L83.3642 52.97L86.9142 58H84.0942L81.8142 54.52L79.5042 57.98L76.8042 58.01Z" fill="black"/>
</svg>
