<svg width="1400" height="354" viewBox="0 0 1400 354" fill="none" xmlns="http://www.w3.org/2000/svg">
<circle cx="160.033" cy="40.2151" r="40.0979" fill="#E03716"/>
<circle cx="160.033" cy="120.412" r="40.0979" fill="#E03716"/>
<circle cx="160.033" cy="200.608" r="40.0979" fill="#E03716"/>
<circle cx="160.033" cy="280.803" r="40.0979" fill="#E03716"/>
<circle cx="1311.32" cy="89.1482" r="89.031" fill="#51152E"/>
<circle cx="1311.32" cy="264.492" r="89.031" fill="#51152E"/>
<circle cx="1360.25" cy="264.492" r="40.0979" transform="rotate(90 1360.25 264.492)" fill="#E03716"/>
<circle cx="1280.06" cy="264.492" r="40.0979" transform="rotate(90 1280.06 264.492)" fill="#E03716"/>
<circle cx="1199.86" cy="264.492" r="40.0979" transform="rotate(90 1199.86 264.492)" fill="#E03716"/>
<circle cx="1119.66" cy="264.492" r="40.0979" transform="rotate(90 1119.66 264.492)" fill="#E03716"/>
<mask id="mask0_1133_570" style="mask-type:alpha" maskUnits="userSpaceOnUse" x="-18" y="-76" width="355" height="179">
<circle cx="247.025" cy="13.031" r="89.031" transform="rotate(90 247.025 13.031)" fill="#51152E"/>
<circle cx="71.6809" cy="13.031" r="89.031" transform="rotate(90 71.6809 13.031)" fill="#51152E"/>
</mask>
<g mask="url(#mask0_1133_570)">
<rect width="351" height="102" fill="#51152E"/>
</g>
</svg>
