<svg width="1400" height="398" viewBox="0 0 1400 398" fill="none" xmlns="http://www.w3.org/2000/svg">
<circle cx="202.432" cy="114.596" r="40.4862" fill="#E5E525"/>
<circle cx="202.432" cy="195.568" r="40.4862" fill="#E5E525"/>
<circle cx="202.432" cy="276.541" r="40.4862" fill="#E5E525"/>
<circle cx="202.432" cy="357.514" r="40.4862" fill="#E5E525"/>
<circle cx="283.403" cy="357.514" r="40.4862" fill="#E5E525"/>
<circle cx="283.403" cy="276.541" r="40.4862" fill="#E5E525"/>
<circle cx="283.403" cy="195.568" r="40.4862" fill="#E5E525"/>
<circle cx="283.403" cy="114.596" r="40.4862" fill="#E5E525"/>
<circle cx="40.4862" cy="114.596" r="40.4862" fill="#E5E525"/>
<circle cx="40.4862" cy="195.568" r="40.4862" fill="#E5E525"/>
<circle cx="40.4862" cy="276.541" r="40.4862" fill="#E5E525"/>
<circle cx="40.4862" cy="357.514" r="40.4862" fill="#E5E525"/>
<circle cx="121.459" cy="357.514" r="40.4862" fill="#E5E525"/>
<circle cx="121.459" cy="276.541" r="40.4862" fill="#E5E525"/>
<circle cx="121.459" cy="195.568" r="40.4862" fill="#E5E525"/>
<circle cx="121.459" cy="114.596" r="40.4862" fill="#E5E525"/>
<circle cx="526.32" cy="276.541" r="40.4862" transform="rotate(90 526.32 276.541)" fill="#E5E525"/>
<circle cx="445.348" cy="276.541" r="40.4862" transform="rotate(90 445.348 276.541)" fill="#E5E525"/>
<circle cx="364.376" cy="276.541" r="40.4862" transform="rotate(90 364.376 276.541)" fill="#E5E525"/>
<circle cx="364.376" cy="357.514" r="40.4862" transform="rotate(90 364.376 357.514)" fill="#E5E525"/>
<circle cx="445.348" cy="357.514" r="40.4862" transform="rotate(90 445.348 357.514)" fill="#E5E525"/>
<circle cx="526.32" cy="357.514" r="40.4862" transform="rotate(90 526.32 357.514)" fill="#E5E525"/>
<circle cx="41.1728" cy="196.255" r="23.331" fill="#E1A6B8"/>
<circle cx="284.09" cy="358.2" r="23.331" fill="#E1A6B8"/>
<circle cx="203.117" cy="196.255" r="23.331" fill="#E1A6B8"/>
<circle cx="122.145" cy="358.2" r="23.331" fill="#E1A6B8"/>
<circle cx="527.007" cy="277.228" r="23.331" fill="#E1A6B8"/>
<circle cx="1358.87" cy="40.4862" r="40.4862" transform="rotate(90 1358.87 40.4862)" fill="#E5E525"/>
<circle cx="1277.89" cy="40.4862" r="40.4862" transform="rotate(90 1277.89 40.4862)" fill="#E5E525"/>
<circle cx="1196.92" cy="40.4862" r="40.4862" transform="rotate(90 1196.92 40.4862)" fill="#E5E525"/>
<circle cx="1115.95" cy="40.4862" r="40.4862" transform="rotate(90 1115.95 40.4862)" fill="#E5E525"/>
<circle cx="1358.87" cy="121.459" r="40.4862" transform="rotate(90 1358.87 121.459)" fill="#E5E525"/>
<circle cx="1277.89" cy="121.459" r="40.4862" transform="rotate(90 1277.89 121.459)" fill="#E5E525"/>
<circle cx="1196.92" cy="121.459" r="40.4862" transform="rotate(90 1196.92 121.459)" fill="#E5E525"/>
<circle cx="1115.95" cy="121.459" r="40.4862" transform="rotate(90 1115.95 121.459)" fill="#E5E525"/>
<circle cx="1034.98" cy="283.404" r="40.4862" transform="rotate(180 1034.98 283.404)" fill="#E5E525"/>
<circle cx="1034.98" cy="202.432" r="40.4862" transform="rotate(180 1034.98 202.432)" fill="#E5E525"/>
<circle cx="1034.98" cy="121.459" r="40.4862" transform="rotate(180 1034.98 121.459)" fill="#E5E525"/>
<circle cx="1034.98" cy="40.4865" r="40.4862" transform="rotate(180 1034.98 40.4865)" fill="#E5E525"/>
<circle cx="1035.66" cy="122.145" r="23.331" fill="#E1A6B8"/>
<circle cx="1278.58" cy="41.1728" r="23.331" fill="#E1A6B8"/>
<circle cx="1035.66" cy="286.835" r="23.331" fill="#E1A6B8"/>
</svg>
