<svg width="1370" height="397" viewBox="0 0 1370 397" fill="none" xmlns="http://www.w3.org/2000/svg">
<circle cx="786.536" cy="335.956" r="60.649" fill="#549987"/>
<circle cx="907.833" cy="335.956" r="60.649" fill="#549987"/>
<circle cx="908.515" cy="313.468" r="23.1693" fill="#51152E"/>
<ellipse cx="364.037" cy="61.3304" rx="60.649" ry="61.3304" fill="#549987"/>
<circle cx="485.335" cy="60.649" r="60.649" fill="#549987"/>
<circle cx="473.751" cy="84.5013" r="23.1693" fill="#51152E"/>
<circle cx="1121.81" cy="62.0132" r="60.649" fill="#549987"/>
<circle cx="1243.1" cy="62.0132" r="60.649" fill="#549987"/>
<circle cx="1121.81" cy="183.31" r="60.649" fill="#549987"/>
<circle cx="1243.1" cy="183.31" r="60.649" fill="#549987"/>
<circle cx="1112.95" cy="169.001" r="23.1693" fill="#51152E"/>
<circle cx="1253.33" cy="197.621" r="23.1693" fill="#E5E525"/>
<circle cx="1299.67" cy="197.621" r="23.1693" fill="#E5E525"/>
<circle cx="1346.01" cy="197.621" r="23.1693" fill="#E5E525"/>
<circle cx="1253.33" cy="243.96" r="23.1693" fill="#E5E525"/>
<circle cx="1299.67" cy="243.96" r="23.1693" fill="#E5E525"/>
<circle cx="1346.01" cy="243.96" r="23.1693" fill="#E5E525"/>
<circle cx="1253.33" cy="290.3" r="23.1693" fill="#E5E525"/>
<circle cx="1299.67" cy="290.3" r="23.1693" fill="#E5E525"/>
<circle cx="1346.01" cy="290.3" r="23.1693" fill="#E5E525"/>
<circle cx="61.4742" cy="213.294" r="60.649" fill="#549987"/>
<circle cx="182.772" cy="213.294" r="60.649" fill="#549987"/>
<ellipse cx="61.4742" cy="335.276" rx="60.649" ry="61.3304" fill="#549987"/>
<circle cx="182.772" cy="334.594" r="60.649" fill="#549987"/>
<circle cx="71.6947" cy="190.806" r="23.1693" fill="#51152E"/>
<circle cx="197.082" cy="58.6048" r="23.1693" fill="#E5E525"/>
<circle cx="243.42" cy="58.6048" r="23.1693" fill="#E5E525"/>
<circle cx="289.759" cy="58.6048" r="23.1693" fill="#E5E525"/>
<circle cx="197.082" cy="104.944" r="23.1693" fill="#E5E525"/>
<circle cx="243.42" cy="104.944" r="23.1693" fill="#E5E525"/>
<circle cx="289.759" cy="104.944" r="23.1693" fill="#E5E525"/>
<circle cx="197.082" cy="151.283" r="23.1693" fill="#E5E525"/>
<circle cx="243.42" cy="151.283" r="23.1693" fill="#E5E525"/>
<circle cx="289.759" cy="151.283" r="23.1693" fill="#E5E525"/>
</svg>
